<svg width="32" height="33" viewBox="0 0 32 33" fill="none" xmlns="http://www.w3.org/2000/svg">
<g clip-path="url(#clip0_23_59)">
<path fill-rule="evenodd" clip-rule="evenodd" d="M16 0.331055C24.84 0.331055 32 7.49105 32 16.3311C32 25.1711 24.84 32.3311 16 32.3311C7.16 32.3311 0 25.1711 0 16.3311C0 7.49105 7.16 0.331055 16 0.331055ZM22.46 7.72105H9.54C8.33 7.72105 7.39 8.66105 7.39 9.87105V22.7911C7.39 24.0011 8.33 24.9411 9.54 24.9411H22.46C23.67 24.9411 24.61 24.0011 24.61 22.7811V9.87105C24.61 8.66105 23.67 7.72105 22.46 7.72105ZM16.01 12.9511C17.92 12.9511 19.47 14.4511 19.47 16.3011C19.47 18.1511 17.92 19.6511 16.01 19.6511C14.1 19.6511 12.56 18.1511 12.56 16.3011C12.56 14.4511 14.11 12.9511 16.01 12.9511ZM22.46 22.2511C22.46 22.6211 22.29 22.7911 21.92 22.7911H10.08C9.71 22.7911 9.54 22.6211 9.54 22.2511V14.7211L10.89 15.0111C10.74 15.4811 10.66 15.9711 10.66 16.4811C10.66 19.3511 13.06 21.6711 16.01 21.6711C18.97 21.6711 21.36 19.3511 21.36 16.4811C21.36 15.9711 21.28 15.4811 21.14 15.0111L22.46 14.7211V22.2511ZM22.46 12.5711C22.46 12.8611 22.21 13.1011 21.92 13.1011H19.76C19.47 13.1011 19.23 12.8611 19.23 12.5711V10.4111C19.23 10.1211 19.47 9.87105 19.76 9.87105H21.92C22.21 9.87105 22.46 10.1211 22.46 10.4111V12.5711Z" fill="#003399"/>
</g>
<defs>
<clipPath id="clip0_23_59">
<rect width="32" height="32" fill="white" transform="translate(0 0.331055)"/>
</clipPath>
</defs>
</svg>
