<svg width="150" height="151" viewBox="0 0 150 151" fill="none" xmlns="http://www.w3.org/2000/svg">
<g clip-path="url(#clip0_23_20)">
<path d="M108.777 96.8213C108.425 97.4024 107.829 97.6905 106.994 97.6905H91.2951C89.9442 97.6905 89.0303 97.467 88.5486 97.015C88.0668 96.568 87.5354 95.6343 86.9593 94.2238C86.4825 92.8878 85.9809 91.5022 85.6133 90.1364L85.5686 89.9725L85.5388 89.8731L85.4942 89.7241C82.2013 79.354 67.1278 79.344 63.9492 89.7738L63.9443 89.7986L63.9343 89.8235L63.9294 89.8483C63.9095 89.9228 63.8847 89.9973 63.8648 90.0718L63.8598 90.0966C63.4774 91.4773 62.9758 92.8729 62.494 94.2238C61.9775 95.6343 61.4659 96.568 60.9494 97.015C60.4379 97.467 59.5042 97.6905 58.1582 97.6905H42.5533C41.7189 97.6905 41.1229 97.4024 40.7703 96.8213C40.4177 96.2452 40.4326 95.4108 40.82 94.3182C40.8845 94.1245 42.8264 88.8302 46.6457 78.4252C50.465 68.0203 54.1899 57.9233 57.8205 48.1292C61.4461 38.3351 63.393 33.1799 63.6463 32.6683C64.2919 31.0641 65.2852 30.2595 66.6361 30.2595H82.8172C83.6516 30.2595 84.2624 30.4383 84.6498 30.7909C85.0323 31.1436 85.4495 31.7694 85.9014 32.6683C86.1547 33.309 89.979 43.6196 97.3642 63.5901C104.749 83.5606 108.539 93.8066 108.728 94.3182L108.777 96.8213ZM69.626 71.7899C68.5334 75.1572 71.111 78.7381 74.7217 78.7381C78.3224 78.7381 80.9199 75.1622 79.8273 71.7899C79.5293 71.035 76.8921 60.7939 76.7878 60.6946C76.4699 59.7261 75.864 59.592 74.7614 59.592C73.6588 59.592 72.9685 59.7907 72.6904 60.8337C71.8262 63.1381 70.5448 69.5301 69.626 71.7899Z" fill="#003399"/>
<path d="M74.7615 54.1189C75.6952 54.1189 76.4551 54.8788 76.4551 55.8125C76.4551 56.7462 75.6952 57.5061 74.7615 57.5061C73.8278 57.5061 73.0679 56.7462 73.0679 55.8125C73.0679 54.8788 73.8278 54.1189 74.7615 54.1189Z" fill="white"/>
<path d="M10.2759 124.371H13.6184V125.002H12.2923V128.791H11.602V125.002H10.2759V124.371Z" fill="#414141"/>
<path d="M15.8882 124.371H17.6563C18.0784 124.371 18.4311 124.51 18.7142 124.783C19.0022 125.061 19.1413 125.399 19.1413 125.791C19.1413 126.189 19.0022 126.526 18.7142 126.799C18.4311 127.073 18.0784 127.212 17.6563 127.212H16.5835V128.791H15.8882V124.371ZM17.6563 125.002H16.5835V126.581H17.6563C17.8748 126.581 18.0586 126.506 18.2175 126.353C18.3665 126.204 18.446 126.015 18.446 125.791C18.446 125.568 18.3665 125.384 18.2175 125.23C18.0586 125.076 17.8748 125.002 17.6563 125.002Z" fill="#414141"/>
<path d="M20.7803 128.791L22.608 124.371H23.3033L25.1359 128.791H24.4108L23.934 127.624H21.9772L21.5054 128.791H20.7803ZM22.9556 125.161L22.2305 126.988H23.6807L22.9556 125.161Z" fill="#414141"/>
<path d="M30.9713 124.371V128.791H30.2809V126.864H28.1006V128.791H27.4053V124.371H28.1006V126.233H30.2809V124.371H30.9713Z" fill="#414141"/>
<path d="M35.8289 124.306C36.0524 124.306 36.2709 124.336 36.4746 124.396C36.6782 124.455 36.852 124.525 36.9861 124.609C37.1202 124.694 37.2394 124.778 37.3387 124.863C37.4381 124.942 37.5126 125.012 37.5622 125.071L37.6268 125.161L37.1848 125.603C37.1748 125.588 37.155 125.563 37.1351 125.533C37.1103 125.503 37.0557 125.449 36.9712 125.374C36.8868 125.295 36.7974 125.225 36.6981 125.171C36.6037 125.111 36.4795 125.061 36.3206 125.012C36.1666 124.967 36.0027 124.942 35.8289 124.942C35.372 124.942 34.9846 125.101 34.6667 125.414C34.3489 125.732 34.1899 126.124 34.1899 126.581C34.1899 127.038 34.3439 127.425 34.6618 127.748C34.9796 128.066 35.372 128.225 35.8289 128.225C36.0027 128.225 36.1666 128.2 36.3256 128.151C36.4845 128.101 36.6136 128.046 36.7179 127.977C36.8222 127.907 36.9116 127.843 36.9911 127.773C37.0706 127.708 37.1301 127.649 37.1699 127.604L37.2195 127.525L37.6616 127.972C37.6467 127.997 37.6218 128.026 37.5871 128.066C37.5523 128.106 37.4778 128.18 37.3636 128.28C37.2444 128.379 37.1202 128.468 36.9911 128.548C36.862 128.627 36.6881 128.697 36.4795 128.756C36.2709 128.821 36.0524 128.851 35.8289 128.851C35.1684 128.851 34.6121 128.632 34.1651 128.195C33.7181 127.753 33.4946 127.217 33.4946 126.581C33.4946 125.945 33.7181 125.409 34.1651 124.967C34.6121 124.53 35.1684 124.306 35.8289 124.306Z" fill="#414141"/>
<path d="M43.6212 124.371V128.791H42.9308V125.002H40.7505V128.791H40.0552V124.371H43.6212Z" fill="#414141"/>
<path d="M47.3166 125.414C46.9988 125.732 46.8398 126.124 46.8398 126.581C46.8398 127.038 46.9988 127.425 47.3166 127.748C47.6345 128.066 48.0219 128.225 48.4788 128.225C48.9407 128.225 49.3281 128.066 49.646 127.748C49.9638 127.425 50.1227 127.038 50.1227 126.581C50.1227 126.124 49.9638 125.732 49.646 125.414C49.3281 125.101 48.9407 124.942 48.4788 124.942C48.0219 124.942 47.6345 125.101 47.3166 125.414ZM46.815 128.195C46.368 127.753 46.1445 127.217 46.1445 126.581C46.1445 125.945 46.368 125.409 46.815 124.967C47.267 124.53 47.8183 124.306 48.4788 124.306C49.1394 124.306 49.6956 124.53 50.1426 124.967C50.5896 125.409 50.8131 125.945 50.8131 126.581C50.8131 127.217 50.5896 127.753 50.1426 128.195C49.6956 128.632 49.1394 128.851 48.4788 128.851C47.8183 128.851 47.267 128.632 46.815 128.195Z" fill="#414141"/>
<path d="M53.3408 124.371H55.1039C55.5261 124.371 55.8787 124.51 56.1668 124.783C56.4499 125.061 56.5889 125.399 56.5889 125.791C56.5889 126.189 56.4499 126.526 56.1668 126.799C55.8787 127.073 55.5261 127.212 55.1039 127.212H54.0312V128.791H53.3408V124.371ZM55.1039 125.002H54.0312V126.581H55.1039C55.3225 126.581 55.5112 126.506 55.6652 126.353C55.8191 126.204 55.8936 126.015 55.8936 125.791C55.8936 125.568 55.8191 125.384 55.6652 125.23C55.5112 125.076 55.3225 125.002 55.1039 125.002Z" fill="#414141"/>
<path d="M58.6055 124.371H61.9529V125.002H60.6269V128.791H59.9315V125.002H58.6055V124.371Z" fill="#414141"/>
<path d="M67.7886 124.371V128.791H67.0983V126.864H64.918V128.791H64.2227V124.371H64.918V126.233H67.0983V124.371H67.7886Z" fill="#414141"/>
<path d="M70.0581 128.791L71.8908 124.371H72.5811L74.4138 128.791H73.6887L73.2168 127.624H71.255L70.7832 128.791H70.0581ZM72.2384 125.161L71.5083 126.988H72.9635L72.2384 125.161Z" fill="#414141"/>
<path d="M79.7778 124.371V128.791H79.0824V127.088H78.0742L77.1256 128.791H76.3657L77.3789 127.023C77.3541 127.013 77.3243 127.003 77.2845 126.983C77.2398 126.963 77.1703 126.919 77.071 126.844C76.9716 126.775 76.8822 126.695 76.8028 126.606C76.7233 126.516 76.6538 126.392 76.5892 126.238C76.5247 126.079 76.4949 125.91 76.4949 125.732C76.4949 125.349 76.629 125.026 76.8971 124.763C77.1703 124.5 77.508 124.371 77.9153 124.371H79.7778ZM77.3988 125.21C77.2597 125.349 77.1902 125.523 77.1902 125.727C77.1902 125.935 77.2597 126.109 77.3988 126.248C77.5378 126.382 77.7117 126.452 77.9153 126.452H79.0824V125.002H77.9153C77.7117 125.002 77.5378 125.071 77.3988 125.21Z" fill="#414141"/>
<path d="M91.5683 124.371V126.516L93.5549 124.371H94.4439L92.7354 126.204L94.5681 128.791H93.7138L92.2636 126.705L91.5683 127.465V128.791H90.8779V124.371H91.5683Z" fill="#414141"/>
<path d="M97.4391 125.414C97.1213 125.732 96.9623 126.124 96.9623 126.581C96.9623 127.038 97.1213 127.425 97.4391 127.748C97.757 128.066 98.1444 128.225 98.6063 128.225C99.0632 128.225 99.4555 128.066 99.7734 127.748C100.091 127.425 100.25 127.038 100.25 126.581C100.25 126.124 100.091 125.732 99.7734 125.414C99.4555 125.101 99.0632 124.942 98.6063 124.942C98.1444 124.942 97.757 125.101 97.4391 125.414ZM96.9425 128.195C96.4955 127.753 96.272 127.217 96.272 126.581C96.272 125.945 96.4955 125.409 96.9425 124.967C97.3895 124.53 97.9457 124.306 98.6063 124.306C99.2668 124.306 99.8181 124.53 100.27 124.967C100.717 125.409 100.941 125.945 100.941 126.581C100.941 127.217 100.717 127.753 100.27 128.195C99.8181 128.632 99.2668 128.851 98.6063 128.851C97.9457 128.851 97.3895 128.632 96.9425 128.195Z" fill="#414141"/>
<path d="M105.768 126.516L107.471 124.371H108.072V128.791H107.382V125.573L105.768 127.589L104.159 125.573V128.791H103.463V124.371H104.064L105.768 126.516Z" fill="#414141"/>
<path d="M114.415 124.371V128.791H113.719V125.002H111.539V128.791H110.849V124.371H114.415Z" fill="#414141"/>
<path d="M116.685 128.791L118.512 124.371H119.208L121.04 128.791H120.315L119.838 127.624H117.882L117.41 128.791H116.685ZM118.86 125.161L118.135 126.988H119.585L118.86 125.161Z" fill="#414141"/>
<path d="M126.876 124.371V128.791H126.185V126.864H124.005V128.791H123.31V124.371H124.005V126.233H126.185V124.371H126.876Z" fill="#414141"/>
<path d="M133.407 128.791H132.711V125.603L130.248 128.791H129.652V124.371H130.342V127.559L132.806 124.371H133.407V128.791Z" fill="#414141"/>
<path d="M139.277 124.371V128.791H138.582V127.088H137.569L136.625 128.791H135.865L136.878 127.023C136.854 127.013 136.819 127.003 136.779 126.983C136.739 126.963 136.67 126.919 136.57 126.844C136.466 126.775 136.377 126.695 136.302 126.606C136.223 126.516 136.148 126.392 136.089 126.238C136.024 126.079 135.989 125.91 135.989 125.732C135.989 125.349 136.128 125.026 136.397 124.763C136.67 124.5 137.008 124.371 137.415 124.371H139.277ZM136.898 125.21C136.759 125.349 136.69 125.523 136.69 125.727C136.69 125.935 136.759 126.109 136.898 126.248C137.037 126.382 137.206 126.452 137.415 126.452H138.582V125.002H137.415C137.206 125.002 137.037 125.071 136.898 125.21Z" fill="#414141"/>
<path d="M16.5487 115.759L15.1929 112.103L13.837 115.759H16.5487ZM17.3384 117.825H13.0473L12.0937 120.447H9.5459L13.9214 109.317H16.4593L20.8399 120.447H18.292L17.3384 117.825Z" fill="black"/>
<path d="M32.695 109.317V120.447H30.311V111.463H27.053V112.739C27.053 114.309 26.9685 115.62 26.7947 116.688C26.6209 117.75 26.3676 118.565 26.0249 119.136C25.6872 119.702 25.3097 120.105 24.8875 120.338C24.4703 120.571 23.9737 120.686 23.3976 120.686C23.1641 120.686 22.9307 120.661 22.6923 120.611C22.4539 120.561 22.2801 120.517 22.1659 120.477L21.9722 120.412V118.143C22.2354 118.242 22.4986 118.297 22.7619 118.302C23.1741 118.302 23.5118 118.177 23.7651 117.924C24.0234 117.676 24.2369 117.13 24.4107 116.29C24.5846 115.451 24.674 114.269 24.674 112.754V109.317H32.695Z" fill="black"/>
<path d="M41.2172 120.447H36.5288V109.317H38.9177V112.973H41.2172C42.3595 112.973 43.3082 113.33 44.0581 114.045C44.813 114.765 45.1905 115.65 45.1905 116.712C45.1905 117.77 44.813 118.659 44.0581 119.374C43.3082 120.09 42.3595 120.447 41.2172 120.447ZM38.9177 118.302H41.1378C41.6146 118.302 42.0119 118.148 42.3297 117.84C42.6476 117.532 42.8065 117.159 42.8065 116.712C42.8065 116.265 42.6476 115.893 42.3297 115.585C42.0119 115.272 41.6146 115.123 41.1378 115.123H38.9177V118.302Z" fill="black"/>
<path d="M56.5739 109.317V120.447H54.19V116.548H52.1239L49.9783 120.447H47.4404L49.8194 116.231C49.7697 116.211 49.7002 116.176 49.6108 116.131C49.5165 116.087 49.3575 115.967 49.134 115.774C48.9056 115.58 48.7019 115.376 48.5231 115.153C48.3493 114.929 48.1904 114.621 48.0464 114.229C47.9073 113.837 47.8328 113.42 47.8328 112.973C47.8328 111.939 48.1953 111.075 48.9155 110.37C49.6307 109.67 50.5445 109.317 51.6471 109.317H56.5739ZM50.2167 112.973C50.2167 113.375 50.3608 113.713 50.6488 113.991C50.9369 114.269 51.2945 114.408 51.7315 114.408H54.19V111.463H51.7315C51.2945 111.463 50.9369 111.607 50.6488 111.89C50.3608 112.178 50.2167 112.535 50.2167 112.973Z" fill="black"/>
<path d="M69.9441 109.317V120.447H67.5601V115.913H62.7972V120.447H60.4033V109.317H62.7972V113.767H67.5601V109.317H69.9441Z" fill="black"/>
<path d="M79.1869 109.084C79.7729 109.084 80.3292 109.158 80.8556 109.312C81.3821 109.466 81.8192 109.65 82.1569 109.868C82.4946 110.087 82.7926 110.301 83.0558 110.519C83.3191 110.738 83.5028 110.921 83.617 111.07L83.7958 111.304L82.286 112.814C82.2512 112.774 82.2115 112.714 82.1569 112.64C82.1022 112.565 81.9781 112.441 81.7894 112.257C81.6006 112.079 81.397 111.92 81.1735 111.781C80.95 111.642 80.6619 111.517 80.2944 111.398C79.9319 111.284 79.5643 111.224 79.1869 111.224C78.1439 111.224 77.2748 111.572 76.5794 112.272C75.8792 112.973 75.5315 113.842 75.5315 114.88C75.5315 115.923 75.8792 116.792 76.5794 117.487C77.2748 118.187 78.1439 118.535 79.1869 118.535C79.5892 118.535 79.9766 118.48 80.3491 118.366C80.7166 118.257 81.0245 118.128 81.2679 117.974C81.5112 117.82 81.7248 117.666 81.9086 117.512C82.0973 117.358 82.2314 117.224 82.3158 117.11L82.44 116.946L83.8753 118.461C83.8356 118.52 83.771 118.6 83.6866 118.704C83.6021 118.803 83.4085 118.982 83.1204 119.235C82.8274 119.494 82.5095 119.722 82.1768 119.911C81.844 120.11 81.4069 120.283 80.8656 120.447C80.3242 120.606 79.768 120.686 79.1869 120.686C77.4883 120.686 76.0579 120.119 74.8908 118.982C73.7237 117.845 73.1426 116.479 73.1426 114.88C73.1426 113.28 73.7237 111.915 74.8908 110.782C76.0579 109.65 77.4883 109.084 79.1869 109.084Z" fill="black"/>
<path d="M91.6033 114.805V116.712H85.8818V114.805H91.6033Z" fill="black"/>
<path d="M100.285 115.759L98.9341 112.103L97.5782 115.759H100.285ZM101.075 117.825H96.7836L95.83 120.447H93.2871L97.6626 109.317H100.201L104.576 120.447H102.028L101.075 117.825Z" fill="black"/>
<path d="M112.18 120.447H107.139V109.317H111.912C112.92 109.317 113.754 109.61 114.415 110.201C115.075 110.787 115.403 111.478 115.403 112.257C115.403 112.55 115.363 112.833 115.279 113.102C115.194 113.365 115.09 113.588 114.961 113.762C114.832 113.941 114.703 114.09 114.574 114.219C114.449 114.343 114.345 114.433 114.261 114.487L114.132 114.562C114.181 114.582 114.246 114.611 114.325 114.651C114.41 114.691 114.554 114.785 114.767 114.939C114.976 115.093 115.165 115.257 115.324 115.441C115.482 115.62 115.631 115.868 115.761 116.181C115.895 116.494 115.959 116.832 115.959 117.189C115.959 118.073 115.607 118.843 114.896 119.484C114.186 120.124 113.282 120.447 112.18 120.447ZM109.528 118.461H112.065C112.503 118.461 112.86 118.322 113.148 118.048C113.436 117.77 113.58 117.432 113.58 117.03C113.58 116.628 113.436 116.285 113.148 116.012C112.86 115.734 112.503 115.595 112.065 115.595H109.528V118.461ZM111.748 111.304H109.528V113.693H111.748C112.14 113.693 112.453 113.583 112.676 113.365C112.905 113.151 113.019 112.863 113.019 112.496C113.019 112.133 112.905 111.845 112.676 111.632C112.453 111.413 112.14 111.304 111.748 111.304Z" fill="black"/>
<path d="M117.728 109.317H126.469V111.463H123.295V120.447H120.911V111.463H117.728V109.317Z" fill="black"/>
<path d="M131.425 112.282C130.73 112.992 130.387 113.857 130.387 114.885C130.387 115.913 130.73 116.777 131.425 117.482C132.12 118.182 132.964 118.535 133.963 118.535C134.956 118.535 135.8 118.182 136.496 117.482C137.186 116.777 137.534 115.913 137.534 114.885C137.534 113.857 137.186 112.992 136.496 112.282C135.8 111.577 134.956 111.224 133.963 111.224C132.964 111.224 132.12 111.577 131.425 112.282ZM129.667 118.982C128.5 117.845 127.918 116.479 127.918 114.88C127.918 113.28 128.5 111.915 129.667 110.782C130.834 109.65 132.264 109.084 133.963 109.084C135.656 109.084 137.087 109.65 138.254 110.782C139.416 111.915 140.002 113.28 140.002 114.88C140.002 116.479 139.416 117.845 138.254 118.982C137.087 120.119 135.656 120.686 133.963 120.686C132.264 120.686 130.834 120.119 129.667 118.982Z" fill="black"/>
</g>
<defs>
<clipPath id="clip0_23_20">
<rect width="150" height="150" fill="white" transform="translate(0 0.331055)"/>
</clipPath>
</defs>
</svg>
