<svg width="32" height="32" viewBox="0 0 32 32" fill="none" xmlns="http://www.w3.org/2000/svg">
<path d="M29.4102 19.7298L21.9502 14.8898C22.9302 13.2898 23.4402 11.4598 23.4502 9.43979C23.4602 5.34979 20.1402 2.00979 16.0502 2.00979C11.9502 1.99979 8.62022 5.30979 8.60022 9.40979C8.59022 11.4298 9.09022 13.2598 10.0702 14.8698L2.59022 19.6698C2.28022 19.8698 2.09022 20.2198 2.09022 20.5998C2.08022 20.9798 2.27022 21.3198 2.59022 21.5298L15.3702 29.8298C15.5502 29.9498 15.7602 30.0098 15.9702 30.0098C16.1802 30.0098 16.3902 29.9498 16.5702 29.8298L29.4002 21.5898C29.7202 21.3898 29.9102 21.0398 29.9102 20.6598C29.9102 20.2798 29.7302 19.9298 29.4102 19.7298ZM19.3602 9.38979C19.3502 11.2198 17.8602 12.7098 16.0202 12.7098C14.1902 12.7098 12.7002 11.2098 12.7002 9.37979C12.7102 7.53979 14.2002 6.04979 16.0402 6.05979C17.8702 6.05979 19.3602 7.55979 19.3602 9.38979ZM15.9802 27.5798L5.23022 20.5898L11.4002 16.6298L11.4702 16.6998C11.5302 16.7598 11.5902 16.8198 11.6502 16.8798C11.7202 16.9498 11.7902 17.0198 11.8602 17.0898C11.9202 17.1498 11.9802 17.1998 12.0402 17.2598C12.1102 17.3298 12.1802 17.3898 12.2502 17.4498C12.3102 17.4998 12.3702 17.5498 12.4302 17.5998C12.5002 17.6598 12.5702 17.7198 12.6402 17.7798C12.7002 17.8198 12.7602 17.8698 12.8102 17.9098C12.8802 17.9598 12.9602 18.0198 13.0302 18.0698C13.0802 18.1098 13.1302 18.1398 13.1902 18.1898C13.2602 18.2398 13.3402 18.2898 13.4202 18.3398C13.4602 18.3698 13.5102 18.3998 13.5502 18.4298C13.6702 18.4998 13.7902 18.5798 13.9002 18.6398C13.9402 18.6698 14.0002 18.6998 14.0402 18.7298C14.1102 18.7698 14.1702 18.7998 14.2302 18.8298C14.2802 18.8598 14.3302 18.8898 14.3802 18.9098C14.4302 18.9398 14.4802 18.9698 14.5302 18.9998C14.5802 19.0198 14.6302 19.0398 14.6702 19.0698C14.7202 19.0898 14.7702 19.1098 14.8102 19.1398C14.8502 19.1598 14.9002 19.1798 14.9402 19.1998C14.9802 19.2198 15.0202 19.2398 15.0602 19.2598C15.1002 19.2698 15.1402 19.2898 15.1702 19.3098C15.2102 19.3198 15.2402 19.3298 15.2702 19.3498C15.3102 19.3598 15.3402 19.3798 15.3702 19.3898C15.4002 19.3998 15.4202 19.3998 15.4402 19.4198C15.4702 19.4298 15.4902 19.4298 15.5102 19.4398C15.5302 19.4498 15.5502 19.4598 15.5702 19.4698C15.5802 19.4698 15.5902 19.4798 15.6102 19.4798C15.6302 19.4898 15.6502 19.4898 15.6502 19.4998C15.7702 19.5398 15.8902 19.5598 16.0002 19.5598C16.1302 19.5598 16.2402 19.5398 16.3602 19.4998C16.3702 19.4998 16.3802 19.4898 16.4002 19.4898C16.4102 19.4798 16.4202 19.4798 16.4402 19.4798C16.4602 19.4698 16.4802 19.4698 16.5002 19.4598C16.5202 19.4498 16.5402 19.4398 16.5702 19.4298C16.5902 19.4198 16.6102 19.4198 16.6402 19.3998C16.6702 19.3898 16.7002 19.3798 16.7302 19.3598C16.7602 19.3498 16.8002 19.3298 16.8302 19.3198C16.8602 19.3098 16.9002 19.2898 16.9302 19.2798C16.9702 19.2598 17.0102 19.2398 17.0602 19.2198C17.1002 19.1998 17.1402 19.1798 17.1902 19.1598C17.2302 19.1398 17.2802 19.1198 17.3202 19.0898C17.3702 19.0698 17.4202 19.0398 17.4702 19.0198C17.5102 18.9998 17.5702 18.9698 17.6202 18.9398C17.6702 18.9098 17.7202 18.8898 17.7802 18.8598C17.8302 18.8298 17.8802 18.7898 17.9402 18.7598C18.0002 18.7298 18.0502 18.6898 18.1102 18.6598C18.1802 18.6098 18.2602 18.5598 18.3502 18.5098C18.4502 18.4498 18.5402 18.3798 18.6402 18.3198C18.7002 18.2798 18.7602 18.2498 18.8202 18.2098C18.8902 18.1598 18.9502 18.1098 19.0202 18.0598C19.0802 18.0198 19.1402 17.9798 19.2002 17.9298C19.2702 17.8798 19.3302 17.8198 19.4102 17.7698C19.4702 17.7198 19.5302 17.6698 19.5902 17.6198C19.6602 17.5698 19.7302 17.5098 19.8002 17.4498C19.8602 17.3998 19.9302 17.3398 19.9802 17.2898C20.0502 17.2298 20.1102 17.1598 20.1902 17.0998C20.2502 17.0398 20.3102 16.9798 20.3702 16.9198C20.4402 16.8498 20.5002 16.7898 20.5702 16.7198C20.5802 16.6998 20.6102 16.6798 20.6302 16.6498L26.7902 20.6498L15.9802 27.5798Z" fill="black"/>
</svg>
