<svg width="28" height="28" viewBox="0 0 28 28" fill="none" xmlns="http://www.w3.org/2000/svg">
<g clip-path="url(#clip0_672_522)">
<path d="M14 1.75C20.7539 1.75 26.25 7.24609 26.25 14C26.25 20.7539 20.7539 26.25 14 26.25C7.24609 26.25 1.75 20.7539 1.75 14C1.75 7.24609 7.24609 1.75 14 1.75ZM14 0C6.26855 0 0 6.26855 0 14C0 21.7314 6.26855 28 14 28C21.7314 28 28 21.7314 28 14C28 6.26855 21.7314 0 14 0ZM21.8049 18.6809L21.7263 18.4417C21.5417 17.8914 20.9333 17.3172 20.3728 17.1633L18.3032 16.5977C17.7427 16.4456 16.9429 16.6506 16.5311 17.0625L15.7825 17.8111C13.0618 17.0745 10.9273 14.94 10.1924 12.2193L10.941 11.4707C11.3512 11.0605 11.5562 10.2607 11.4041 9.6985L10.8401 7.62891C10.688 7.06836 10.1104 6.45996 9.56009 6.27539L9.32422 6.19675C8.7722 6.01218 7.98438 6.19845 7.57422 6.61035L6.45312 7.73145C6.25319 7.92969 6.125 8.49877 6.125 8.50052C6.08737 12.0586 7.48196 15.4851 9.99759 18.0025C12.5064 20.5113 15.921 21.9041 19.4671 21.8733C19.4859 21.8733 20.0721 21.7486 20.272 21.5486L21.3931 20.4275C21.8032 20.019 21.9878 19.2312 21.8049 18.6809Z" fill="black"/>
</g>
<defs>
<clipPath id="clip0_672_522">
<rect width="28" height="28" fill="white"/>
</clipPath>
</defs>
</svg>
