<svg width="32" height="33" viewBox="0 0 32 33" fill="none" xmlns="http://www.w3.org/2000/svg">
<g clip-path="url(#clip0_23_62)">
<path fill-rule="evenodd" clip-rule="evenodd" d="M16 0.331055C24.84 0.331055 32 7.49105 32 16.3311C32 25.1711 24.84 32.3311 16 32.3311C7.16 32.3311 0 25.1711 0 16.3311C0 7.49105 7.16 0.331055 16 0.331055ZM15.3 23.5311H16.57C16.57 23.5311 16.95 23.4911 17.15 23.2811C17.33 23.0811 17.32 22.7211 17.32 22.7211C17.32 22.7211 17.3 21.0111 18.09 20.7611C18.87 20.5211 19.87 22.4111 20.93 23.1411C21.74 23.6911 22.35 23.5711 22.35 23.5711L25.19 23.5311C25.19 23.5311 26.67 23.4411 25.97 22.2711C25.91 22.1811 25.56 21.4111 23.86 19.8311C22.08 18.1811 22.32 18.4411 24.46 15.5911C25.77 13.8411 26.29 12.7811 26.13 12.3311C25.97 11.8911 25.01 12.0111 25.01 12.0111L21.81 12.0311C21.81 12.0311 21.58 11.9911 21.4 12.1011C21.23 12.2011 21.12 12.4411 21.12 12.4411C21.12 12.4411 20.61 13.7911 19.94 14.9411C18.51 17.3511 17.94 17.4811 17.71 17.3311C17.17 16.9811 17.3 15.9311 17.3 15.1811C17.3 12.8311 17.66 11.8611 16.61 11.6011C16.26 11.5211 16.01 11.4611 15.12 11.4511C13.98 11.4411 13.01 11.4611 12.47 11.7311C12.1 11.9011 11.82 12.3011 11.99 12.3211C12.2 12.3511 12.68 12.4511 12.94 12.8011C13.26 13.2411 13.25 14.2411 13.25 14.2411C13.25 14.2411 13.44 17.0011 12.81 17.3511C12.38 17.5811 11.79 17.1011 10.52 14.9111C9.87 13.7811 9.38 12.5411 9.38 12.5411C9.38 12.5411 9.29 12.3111 9.12 12.1911C8.91 12.0411 8.62 11.9911 8.62 11.9911L5.59 12.0111C5.59 12.0111 5.13 12.0211 4.96 12.2211C4.81 12.3911 4.95 12.7611 4.95 12.7611C4.95 12.7611 7.33 18.3311 10.02 21.1311C12.49 23.7011 15.3 23.5311 15.3 23.5311Z" fill="#003399"/>
</g>
<defs>
<clipPath id="clip0_23_62">
<rect width="32" height="32" fill="white" transform="translate(0 0.331055)"/>
</clipPath>
</defs>
</svg>
