<svg width="14" height="17" viewBox="0 0 14 17" fill="none" xmlns="http://www.w3.org/2000/svg">
<g clip-path="url(#clip0_9_96)">
<path fill-rule="evenodd" clip-rule="evenodd" d="M5.05595 1.76107C4.99824 1.87701 4.53653 2.16686 4.36339 2.22484C4.19025 2.34078 3.84397 2.57266 3.67083 2.63063L2.228 3.55817C2.11257 3.67411 1.47772 4.07991 1.30458 4.13788C1.30458 4.19585 1.30458 4.19585 1.18916 4.19585L1.07373 4.31179C1.24687 4.48571 1.59315 4.65962 1.76629 4.77556C1.99714 4.8915 2.28571 5.12339 2.51656 5.23933C2.63199 5.35527 2.74742 5.41324 2.86284 5.47121C2.97827 5.52918 3.0937 5.64513 3.20913 5.7031C3.32455 5.76107 4.47882 6.45672 4.53653 6.51469L6.03708 7.5002C6.21022 7.55817 6.49879 7.73208 6.61421 7.84802C7.36449 8.31179 7.07592 8.31179 7.76848 7.906C7.94162 7.79005 8.11476 7.61614 8.2879 7.55817C8.34561 7.55817 9.49988 6.6886 9.67302 6.6886C9.73074 6.57266 9.96159 6.45672 10.077 6.39875C10.2502 6.28281 10.4233 6.16687 10.5964 6.10889C10.5964 6.05092 11.2313 5.7031 11.289 5.64513L12.0393 5.18136C12.1547 5.06542 12.5587 4.83353 12.7318 4.71759C12.905 4.60165 13.1935 4.48571 13.3667 4.31179C13.309 4.25382 13.309 4.31179 13.2513 4.19585C13.1358 4.19585 13.0204 4.07991 12.905 4.02194C12.7895 3.96397 12.4433 3.73208 12.2701 3.61614C12.0393 3.5002 11.8084 3.32629 11.5776 3.21034L10.1347 2.28281L7.24906 0.427734H7.19135C7.07592 0.543676 6.84507 0.659618 6.67193 0.77556C6.44107 0.891503 5.17138 1.7031 5.05595 1.76107Z" fill="black"/>
<path fill-rule="evenodd" clip-rule="evenodd" d="M12.0971 6.39875L10.6543 7.32629L9.73084 7.906C9.49999 8.02194 9.26913 8.19585 9.03828 8.36977C8.86514 8.42774 8.46115 8.71759 8.34572 8.77556C8.23029 8.89151 7.94173 9.06542 7.76859 9.12339C7.65316 9.2973 7.76859 9.76107 7.76859 10.0509C7.76859 12.1379 7.71087 14.3408 7.76859 16.4277C7.8263 16.3698 8.17258 16.1379 8.28801 16.1379L9.26913 15.5002C9.44227 15.3263 9.73084 15.2103 9.90398 15.0364C10.0771 14.9205 10.4234 14.6886 10.5965 14.6306L12.0394 13.7611C12.4434 13.4132 13.3668 12.9495 13.8862 12.5437V5.2973C13.5976 5.41324 12.2702 6.34078 12.0971 6.39875Z" fill="black"/>
<path fill-rule="evenodd" clip-rule="evenodd" d="M0.900479 12.7756C0.958193 12.7756 2.17017 13.5292 2.2856 13.6451C2.40103 13.7031 3.1513 14.2248 3.32444 14.2828C3.43987 14.3988 3.61301 14.4567 3.61301 14.5147C3.84386 14.6306 4.82499 15.2683 5.17127 15.4422L6.67182 16.4277V9.18136C6.49868 9.06542 6.32554 8.94948 6.1524 8.83353C5.97926 8.71759 5.80612 8.60165 5.63298 8.48571C5.51755 8.42774 4.59413 7.84803 4.59413 7.79006C4.42099 7.73208 3.26673 7.03643 3.20901 6.92049L1.70847 5.99295C1.59304 5.93498 0.900479 5.52919 0.785053 5.41324L0.554199 5.2973V12.5437C0.611913 12.6016 0.785053 12.7176 0.900479 12.7756Z" fill="black"/>
</g>
<defs>
<clipPath id="clip0_9_96">
<rect width="13.44" height="16" fill="white" transform="translate(0.5 0.427734)"/>
</clipPath>
</defs>
</svg>
