<svg width="11" height="17" viewBox="0 0 11 17" fill="none" xmlns="http://www.w3.org/2000/svg">
<g clip-path="url(#clip0_9_101)">
<path d="M1.95594 0.482318C1.75211 0.568525 1.54828 0.740939 1.46092 0.970824C1.37356 1.20071 1.37356 1.66048 1.49004 1.89036C1.66475 2.17772 1.81034 2.26393 2.42184 2.35013C3.06245 2.40761 3.35364 2.55128 3.73218 2.86738C4.16897 3.26967 4.34368 3.87312 4.19808 4.4191C3.96513 5.2237 3.35364 5.626 2.24713 5.7122C1.40268 5.79841 0.907663 6.1145 0.616475 6.74669C0.5 6.97657 0.5 7.00531 0.5 11.0858V15.1662L0.674713 15.5111C0.878544 15.8559 1.14061 16.0858 1.54828 16.2869C1.81034 16.4019 1.81034 16.4019 5.36284 16.4019C7.83793 16.4306 9.00268 16.4019 9.23563 16.3731C9.61418 16.2869 9.93448 16.1145 10.2257 15.7984C10.6333 15.3386 10.6333 15.5111 10.6333 11.0858C10.6042 8.41335 10.6042 7.09151 10.546 6.9191C10.3713 6.22945 9.67241 5.74094 8.91533 5.74094C8.1 5.74094 7.37203 5.36738 7.05172 4.76393C6.64406 4.0168 6.93525 3.03979 7.72146 2.60876C8.01264 2.46508 8.59502 2.3214 8.94444 2.3214C9.38123 2.3214 9.67241 1.97657 9.73065 1.45933C9.75977 1.08577 9.58506 0.740939 9.29387 0.568525C9.11916 0.482318 9.0318 0.453583 5.6249 0.453583C3.70307 0.453583 2.0433 0.453583 1.95594 0.482318V0.482318Z" fill="black"/>
</g>
<defs>
<clipPath id="clip0_9_101">
<rect width="10.1333" height="16" fill="white" transform="translate(0.5 0.427734)"/>
</clipPath>
</defs>
</svg>
