<svg width="32" height="33" viewBox="0 0 32 33" fill="none" xmlns="http://www.w3.org/2000/svg">
<g clip-path="url(#clip0_23_65)">
<path fill-rule="evenodd" clip-rule="evenodd" d="M16 0.331055C24.84 0.331055 32 7.49105 32 16.3311C32 25.1711 24.84 32.3311 16 32.3311C7.16 32.3311 0 25.1711 0 16.3311C0 7.49105 7.16 0.331055 16 0.331055ZM11.41 7.10105H10.2L11.64 11.4511V14.3111H12.84V11.3211L14.24 7.10105H13.01L12.27 9.98105H12.2L11.41 7.10105ZM17.01 9.24105C16.72 8.98105 16.36 8.85106 15.92 8.85106C15.43 8.85106 15.04 8.98106 14.76 9.22106C14.47 9.46105 14.33 9.79105 14.33 10.2011V12.9611C14.33 13.4111 14.47 13.7711 14.75 14.0411C15.03 14.3011 15.4 14.4411 15.87 14.4411C16.35 14.4411 16.73 14.3111 17.01 14.0511C17.29 13.7911 17.43 13.4311 17.43 12.9811V10.2411C17.43 9.83105 17.29 9.50105 17.01 9.24105ZM16.34 13.0611C16.34 13.2011 16.3 13.3111 16.21 13.4011C16.12 13.4811 16.01 13.5211 15.87 13.5211C15.72 13.5211 15.61 13.4811 15.54 13.4011C15.46 13.3211 15.42 13.2111 15.42 13.0611V10.1611C15.42 10.0511 15.47 9.95105 15.55 9.88105C15.63 9.81106 15.73 9.77105 15.86 9.77105C16 9.77105 16.12 9.81106 16.21 9.88105C16.29 9.95105 16.34 10.0511 16.34 10.1611V13.0611ZM21.34 14.3111H20.27V13.7211C20.08 13.9411 19.87 14.1011 19.66 14.2111C19.45 14.3311 19.24 14.3811 19.04 14.3811C18.79 14.3811 18.61 14.3011 18.48 14.1411C18.36 13.9911 18.29 13.7511 18.29 13.4311V8.99105H19.36V13.0611C19.36 13.1911 19.38 13.2811 19.43 13.3411C19.47 13.3911 19.55 13.4211 19.65 13.4211C19.72 13.4211 19.82 13.3911 19.94 13.3111C20.06 13.2411 20.17 13.1411 20.27 13.0211V8.99105H21.34V14.3111ZM21.35 20.8811C21.2 20.8811 21.09 20.9211 21.02 21.0111C20.95 21.1011 20.92 21.2411 20.92 21.4411V21.9311H21.76V21.4411C21.76 21.2411 21.73 21.1011 21.66 21.0111C21.6 20.9211 21.49 20.8811 21.35 20.8811ZM18.08 20.8611C18.01 20.8611 17.94 20.8711 17.87 20.9111C17.81 20.9411 17.74 20.9911 17.68 21.0511V24.0611C17.76 24.1411 17.83 24.2011 17.9 24.2311C17.98 24.2711 18.05 24.2811 18.13 24.2811C18.25 24.2811 18.33 24.2511 18.39 24.1811C18.44 24.1111 18.47 24.0111 18.47 23.8511V21.3611C18.47 21.1911 18.44 21.0711 18.37 20.9911C18.3 20.9011 18.2 20.8611 18.08 20.8611ZM23.35 17.1211C22.57 16.3411 16 16.3311 16 16.3311C16 16.3311 9.43 16.3411 8.65 17.1211C7.87 17.9011 7.87 21.7511 7.87 21.7711C7.87 21.8011 7.87 25.6411 8.65 26.4211C9.43 27.2011 16 27.2211 16 27.2211C16 27.2211 22.57 27.2011 23.35 26.4211C24.13 25.6411 24.14 21.7711 24.14 21.7711C24.14 21.7511 24.13 17.9011 23.35 17.1211ZM12.88 19.3911H11.77V24.9811H10.7V19.3911H9.59V18.4411H12.88V19.3911ZM16 24.9811H15.06V24.4511C14.88 24.6511 14.7 24.8011 14.51 24.9011C14.32 25.0011 14.13 25.0511 13.96 25.0511C13.74 25.0511 13.57 24.9811 13.46 24.8311C13.35 24.6911 13.29 24.4811 13.29 24.1911V20.1511H14.24V23.8611C14.24 23.9711 14.26 24.0511 14.3 24.1011C14.34 24.1611 14.41 24.1811 14.5 24.1811C14.56 24.1811 14.65 24.1511 14.76 24.0811C14.87 24.0111 14.96 23.9211 15.06 23.8211V20.1511H16V24.9811ZM19.45 23.9811C19.45 24.3211 19.37 24.5911 19.22 24.7711C19.08 24.9511 18.86 25.0411 18.58 25.0411C18.39 25.0411 18.23 25.0111 18.08 24.9411C17.94 24.8711 17.8 24.7611 17.68 24.6111V24.9811H16.72V18.4411H17.68V20.5411C17.81 20.4011 17.94 20.2811 18.08 20.2111C18.23 20.1311 18.38 20.0911 18.52 20.0911C18.82 20.0911 19.05 20.1911 19.21 20.4011C19.37 20.6111 19.45 20.9111 19.45 21.3011V23.9811ZM22.74 22.6811H20.92V23.5911C20.92 23.8511 20.95 24.0211 21.02 24.1211C21.08 24.2211 21.19 24.2711 21.34 24.2711C21.5 24.2711 21.61 24.2311 21.67 24.1411C21.73 24.0611 21.76 23.8811 21.76 23.5911V23.3711H22.74V23.6211C22.74 24.1111 22.62 24.4911 22.38 24.7411C22.15 24.9911 21.79 25.1111 21.32 25.1111C20.89 25.1111 20.56 24.9811 20.31 24.7211C20.07 24.4511 19.95 24.0911 19.95 23.6211V21.4511C19.95 21.0411 20.08 20.6911 20.35 20.4311C20.62 20.1711 20.96 20.0411 21.39 20.0411C21.82 20.0411 22.16 20.1611 22.39 20.4011C22.62 20.6511 22.74 21.0011 22.74 21.4511V22.6811Z" fill="#003399"/>
</g>
<defs>
<clipPath id="clip0_23_65">
<rect width="32" height="32" fill="white" transform="translate(0 0.331055)"/>
</clipPath>
</defs>
</svg>
