<svg width="150" height="150" viewBox="0 0 150 150" fill="none" xmlns="http://www.w3.org/2000/svg">
<path d="M108.777 96.4903C108.425 97.0714 107.829 97.3594 106.994 97.3594H91.2951C89.9442 97.3594 89.0303 97.1359 88.5486 96.684C88.0668 96.237 87.5354 95.3033 86.9593 93.8928C86.4825 92.5568 85.9809 91.1711 85.6133 89.8053L85.5686 89.6414L85.5388 89.5421L85.4942 89.3931C82.2013 79.0229 67.1278 79.013 63.9492 89.4427L63.9443 89.4676L63.9343 89.4924L63.9294 89.5172C63.9095 89.5917 63.8847 89.6662 63.8648 89.7407L63.8598 89.7656C63.4774 91.1463 62.9758 92.5419 62.494 93.8928C61.9775 95.3033 61.4659 96.237 60.9494 96.684C60.4379 97.1359 59.5042 97.3594 58.1582 97.3594H42.5533C41.7189 97.3594 41.1229 97.0714 40.7703 96.4903C40.4177 95.9142 40.4326 95.0798 40.82 93.9871C40.8845 93.7935 42.8264 88.4991 46.6457 78.0942C50.465 67.6892 54.1899 57.5922 57.8205 47.7981C61.4461 38.0041 63.393 32.8488 63.6463 32.3372C64.2919 30.7331 65.2852 29.9285 66.6361 29.9285H82.8172C83.6516 29.9285 84.2624 30.1073 84.6498 30.4599C85.0323 30.8125 85.4495 31.4383 85.9014 32.3372C86.1547 32.9779 89.979 43.2885 97.3642 63.259C104.749 83.2296 108.539 93.4756 108.728 93.9871L108.777 96.4903ZM69.626 71.4588C68.5334 74.8262 71.111 78.407 74.7217 78.407C78.3224 78.407 80.9199 74.8311 79.8273 71.4588C79.5293 70.7039 76.8921 60.4629 76.7878 60.3635C76.4699 59.3951 75.864 59.261 74.7614 59.261C73.6588 59.261 72.9685 59.4596 72.6904 60.5026C71.8262 62.8071 70.5448 69.1991 69.626 71.4588Z" fill="#003399"/>
<path d="M74.7615 53.7878C75.6952 53.7878 76.4551 54.5477 76.4551 55.4814C76.4551 56.4151 75.6952 57.175 74.7615 57.175C73.8278 57.175 73.0679 56.4151 73.0679 55.4814C73.0679 54.5477 73.8278 53.7878 74.7615 53.7878Z" fill="white"/>
<path d="M10.2759 124.04H13.6184V124.671H12.2923V128.46H11.602V124.671H10.2759V124.04Z" fill="#D5D5D5"/>
<path d="M15.8882 124.04H17.6563C18.0784 124.04 18.4311 124.179 18.7142 124.452C19.0022 124.73 19.1413 125.068 19.1413 125.46C19.1413 125.858 19.0022 126.195 18.7142 126.468C18.4311 126.742 18.0784 126.881 17.6563 126.881H16.5835V128.46H15.8882V124.04ZM17.6563 124.671H16.5835V126.25H17.6563C17.8748 126.25 18.0586 126.175 18.2175 126.021C18.3665 125.872 18.446 125.684 18.446 125.46C18.446 125.237 18.3665 125.053 18.2175 124.899C18.0586 124.745 17.8748 124.671 17.6563 124.671Z" fill="#D5D5D5"/>
<path d="M20.7803 128.46L22.608 124.04H23.3033L25.1359 128.46H24.4108L23.934 127.293H21.9772L21.5054 128.46H20.7803ZM22.9556 124.829L22.2305 126.657H23.6807L22.9556 124.829Z" fill="#D5D5D5"/>
<path d="M30.9713 124.04V128.46H30.2809V126.533H28.1006V128.46H27.4053V124.04H28.1006V125.902H30.2809V124.04H30.9713Z" fill="#D5D5D5"/>
<path d="M35.8289 123.975C36.0524 123.975 36.2709 124.005 36.4746 124.065C36.6782 124.124 36.852 124.194 36.9861 124.278C37.1202 124.363 37.2394 124.447 37.3387 124.531C37.4381 124.611 37.5126 124.68 37.5622 124.74L37.6268 124.829L37.1848 125.271C37.1748 125.257 37.155 125.232 37.1351 125.202C37.1103 125.172 37.0557 125.118 36.9712 125.043C36.8868 124.964 36.7974 124.894 36.6981 124.839C36.6037 124.78 36.4795 124.73 36.3206 124.68C36.1666 124.636 36.0027 124.611 35.8289 124.611C35.372 124.611 34.9846 124.77 34.6667 125.083C34.3489 125.401 34.1899 125.793 34.1899 126.25C34.1899 126.707 34.3439 127.094 34.6618 127.417C34.9796 127.735 35.372 127.894 35.8289 127.894C36.0027 127.894 36.1666 127.869 36.3256 127.819C36.4845 127.77 36.6136 127.715 36.7179 127.646C36.8222 127.576 36.9116 127.511 36.9911 127.442C37.0706 127.377 37.1301 127.318 37.1699 127.273L37.2195 127.194L37.6616 127.641C37.6467 127.665 37.6218 127.695 37.5871 127.735C37.5523 127.775 37.4778 127.849 37.3636 127.948C37.2444 128.048 37.1202 128.137 36.9911 128.217C36.862 128.296 36.6881 128.366 36.4795 128.425C36.2709 128.49 36.0524 128.52 35.8289 128.52C35.1684 128.52 34.6121 128.301 34.1651 127.864C33.7181 127.422 33.4946 126.886 33.4946 126.25C33.4946 125.614 33.7181 125.078 34.1651 124.636C34.6121 124.199 35.1684 123.975 35.8289 123.975Z" fill="#D5D5D5"/>
<path d="M43.6212 124.04V128.46H42.9308V124.671H40.7505V128.46H40.0552V124.04H43.6212Z" fill="#D5D5D5"/>
<path d="M47.3166 125.083C46.9988 125.401 46.8398 125.793 46.8398 126.25C46.8398 126.707 46.9988 127.094 47.3166 127.417C47.6345 127.735 48.0219 127.894 48.4788 127.894C48.9407 127.894 49.3281 127.735 49.646 127.417C49.9638 127.094 50.1227 126.707 50.1227 126.25C50.1227 125.793 49.9638 125.401 49.646 125.083C49.3281 124.77 48.9407 124.611 48.4788 124.611C48.0219 124.611 47.6345 124.77 47.3166 125.083ZM46.815 127.864C46.368 127.422 46.1445 126.886 46.1445 126.25C46.1445 125.614 46.368 125.078 46.815 124.636C47.267 124.199 47.8183 123.975 48.4788 123.975C49.1394 123.975 49.6956 124.199 50.1426 124.636C50.5896 125.078 50.8131 125.614 50.8131 126.25C50.8131 126.886 50.5896 127.422 50.1426 127.864C49.6956 128.301 49.1394 128.52 48.4788 128.52C47.8183 128.52 47.267 128.301 46.815 127.864Z" fill="#D5D5D5"/>
<path d="M53.3408 124.04H55.1039C55.5261 124.04 55.8787 124.179 56.1668 124.452C56.4499 124.73 56.5889 125.068 56.5889 125.46C56.5889 125.858 56.4499 126.195 56.1668 126.468C55.8787 126.742 55.5261 126.881 55.1039 126.881H54.0312V128.46H53.3408V124.04ZM55.1039 124.671H54.0312V126.25H55.1039C55.3225 126.25 55.5112 126.175 55.6652 126.021C55.8191 125.872 55.8936 125.684 55.8936 125.46C55.8936 125.237 55.8191 125.053 55.6652 124.899C55.5112 124.745 55.3225 124.671 55.1039 124.671Z" fill="#D5D5D5"/>
<path d="M58.6055 124.04H61.9529V124.671H60.6269V128.46H59.9315V124.671H58.6055V124.04Z" fill="#D5D5D5"/>
<path d="M67.7886 124.04V128.46H67.0983V126.533H64.918V128.46H64.2227V124.04H64.918V125.902H67.0983V124.04H67.7886Z" fill="#D5D5D5"/>
<path d="M70.0581 128.46L71.8908 124.04H72.5811L74.4138 128.46H73.6887L73.2168 127.293H71.255L70.7832 128.46H70.0581ZM72.2384 124.829L71.5083 126.657H72.9635L72.2384 124.829Z" fill="#D5D5D5"/>
<path d="M79.7778 124.04V128.46H79.0824V126.757H78.0742L77.1256 128.46H76.3657L77.3789 126.692C77.3541 126.682 77.3243 126.672 77.2845 126.652C77.2398 126.632 77.1703 126.588 77.071 126.513C76.9716 126.444 76.8822 126.364 76.8028 126.275C76.7233 126.185 76.6538 126.061 76.5892 125.907C76.5247 125.748 76.4949 125.579 76.4949 125.401C76.4949 125.018 76.629 124.695 76.8971 124.432C77.1703 124.169 77.508 124.04 77.9153 124.04H79.7778ZM77.3988 124.879C77.2597 125.018 77.1902 125.192 77.1902 125.396C77.1902 125.604 77.2597 125.778 77.3988 125.917C77.5378 126.051 77.7117 126.121 77.9153 126.121H79.0824V124.671H77.9153C77.7117 124.671 77.5378 124.74 77.3988 124.879Z" fill="#D5D5D5"/>
<path d="M91.5683 124.04V126.185L93.5549 124.04H94.4439L92.7354 125.872L94.5681 128.46H93.7138L92.2636 126.374L91.5683 127.134V128.46H90.8779V124.04H91.5683Z" fill="#D5D5D5"/>
<path d="M97.4391 125.083C97.1213 125.401 96.9623 125.793 96.9623 126.25C96.9623 126.707 97.1213 127.094 97.4391 127.417C97.757 127.735 98.1444 127.894 98.6063 127.894C99.0632 127.894 99.4555 127.735 99.7734 127.417C100.091 127.094 100.25 126.707 100.25 126.25C100.25 125.793 100.091 125.401 99.7734 125.083C99.4555 124.77 99.0632 124.611 98.6063 124.611C98.1444 124.611 97.757 124.77 97.4391 125.083ZM96.9425 127.864C96.4955 127.422 96.272 126.886 96.272 126.25C96.272 125.614 96.4955 125.078 96.9425 124.636C97.3895 124.199 97.9457 123.975 98.6063 123.975C99.2668 123.975 99.8181 124.199 100.27 124.636C100.717 125.078 100.941 125.614 100.941 126.25C100.941 126.886 100.717 127.422 100.27 127.864C99.8181 128.301 99.2668 128.52 98.6063 128.52C97.9457 128.52 97.3895 128.301 96.9425 127.864Z" fill="#D5D5D5"/>
<path d="M105.768 126.185L107.471 124.04H108.072V128.46H107.382V125.242L105.768 127.258L104.159 125.242V128.46H103.463V124.04H104.064L105.768 126.185Z" fill="#D5D5D5"/>
<path d="M114.415 124.04V128.46H113.719V124.671H111.539V128.46H110.849V124.04H114.415Z" fill="#D5D5D5"/>
<path d="M116.685 128.46L118.512 124.04H119.208L121.04 128.46H120.315L119.838 127.293H117.882L117.41 128.46H116.685ZM118.86 124.829L118.135 126.657H119.585L118.86 124.829Z" fill="#D5D5D5"/>
<path d="M126.876 124.04V128.46H126.185V126.533H124.005V128.46H123.31V124.04H124.005V125.902H126.185V124.04H126.876Z" fill="#D5D5D5"/>
<path d="M133.407 128.46H132.711V125.271L130.248 128.46H129.652V124.04H130.342V127.228L132.806 124.04H133.407V128.46Z" fill="#D5D5D5"/>
<path d="M139.277 124.04V128.46H138.582V126.757H137.569L136.625 128.46H135.865L136.878 126.692C136.854 126.682 136.819 126.672 136.779 126.652C136.739 126.632 136.67 126.588 136.57 126.513C136.466 126.444 136.377 126.364 136.302 126.275C136.223 126.185 136.148 126.061 136.089 125.907C136.024 125.748 135.989 125.579 135.989 125.401C135.989 125.018 136.128 124.695 136.397 124.432C136.67 124.169 137.008 124.04 137.415 124.04H139.277ZM136.898 124.879C136.759 125.018 136.69 125.192 136.69 125.396C136.69 125.604 136.759 125.778 136.898 125.917C137.037 126.051 137.206 126.121 137.415 126.121H138.582V124.671H137.415C137.206 124.671 137.037 124.74 136.898 124.879Z" fill="#D5D5D5"/>
<path d="M16.5487 115.428L15.1929 111.772L13.837 115.428H16.5487ZM17.3384 117.494H13.0473L12.0937 120.116H9.5459L13.9214 108.986H16.4593L20.8399 120.116H18.292L17.3384 117.494Z" fill="black"/>
<path d="M32.695 108.986V120.116H30.311V111.132H27.053V112.408C27.053 113.978 26.9685 115.289 26.7947 116.357C26.6209 117.419 26.3676 118.234 26.0249 118.805C25.6872 119.371 25.3097 119.774 24.8875 120.007C24.4703 120.24 23.9737 120.355 23.3976 120.355C23.1641 120.355 22.9307 120.33 22.6923 120.28C22.4539 120.23 22.2801 120.186 22.1659 120.146L21.9722 120.081V117.812C22.2354 117.911 22.4986 117.966 22.7619 117.971C23.1741 117.971 23.5118 117.847 23.7651 117.593C24.0234 117.345 24.2369 116.799 24.4107 115.959C24.5846 115.12 24.674 113.938 24.674 112.423V108.986H32.695Z" fill="black"/>
<path d="M41.2172 120.116H36.5288V108.986H38.9177V112.642H41.2172C42.3595 112.642 43.3082 112.999 44.0581 113.714C44.813 114.435 45.1905 115.319 45.1905 116.381C45.1905 117.439 44.813 118.328 44.0581 119.043C43.3082 119.759 42.3595 120.116 41.2172 120.116ZM38.9177 117.971H41.1378C41.6146 117.971 42.0119 117.817 42.3297 117.509C42.6476 117.201 42.8065 116.828 42.8065 116.381C42.8065 115.934 42.6476 115.562 42.3297 115.254C42.0119 114.941 41.6146 114.792 41.1378 114.792H38.9177V117.971Z" fill="black"/>
<path d="M56.5739 108.986V120.116H54.19V116.218H52.1239L49.9783 120.116H47.4404L49.8194 115.9C49.7697 115.88 49.7002 115.845 49.6108 115.8C49.5165 115.756 49.3575 115.636 49.134 115.443C48.9056 115.249 48.7019 115.045 48.5231 114.822C48.3493 114.598 48.1904 114.29 48.0464 113.898C47.9073 113.506 47.8328 113.089 47.8328 112.642C47.8328 111.609 48.1953 110.744 48.9155 110.039C49.6307 109.339 50.5445 108.986 51.6471 108.986H56.5739ZM50.2167 112.642C50.2167 113.044 50.3608 113.382 50.6488 113.66C50.9369 113.938 51.2945 114.077 51.7315 114.077H54.19V111.132H51.7315C51.2945 111.132 50.9369 111.276 50.6488 111.559C50.3608 111.847 50.2167 112.205 50.2167 112.642Z" fill="black"/>
<path d="M69.9441 108.986V120.116H67.5601V115.582H62.7972V120.116H60.4033V108.986H62.7972V113.436H67.5601V108.986H69.9441Z" fill="black"/>
<path d="M79.1869 108.753C79.7729 108.753 80.3292 108.827 80.8556 108.981C81.3821 109.135 81.8192 109.319 82.1569 109.537C82.4946 109.756 82.7926 109.969 83.0558 110.188C83.3191 110.407 83.5028 110.59 83.617 110.739L83.7958 110.973L82.286 112.483C82.2512 112.443 82.2115 112.383 82.1569 112.309C82.1022 112.234 81.9781 112.11 81.7894 111.926C81.6006 111.748 81.397 111.589 81.1735 111.45C80.95 111.31 80.6619 111.186 80.2944 111.067C79.9319 110.953 79.5643 110.893 79.1869 110.893C78.1439 110.893 77.2748 111.241 76.5794 111.941C75.8792 112.641 75.5315 113.511 75.5315 114.549C75.5315 115.592 75.8792 116.461 76.5794 117.156C77.2748 117.856 78.1439 118.204 79.1869 118.204C79.5892 118.204 79.9766 118.149 80.3491 118.035C80.7166 117.926 81.0245 117.797 81.2679 117.643C81.5112 117.489 81.7248 117.335 81.9086 117.181C82.0973 117.027 82.2314 116.893 82.3158 116.779L82.44 116.615L83.8753 118.13C83.8356 118.189 83.771 118.269 83.6866 118.373C83.6021 118.472 83.4085 118.651 83.1204 118.904C82.8274 119.163 82.5095 119.391 82.1768 119.58C81.844 119.778 81.4069 119.952 80.8656 120.116C80.3242 120.275 79.768 120.355 79.1869 120.355C77.4883 120.355 76.0579 119.788 74.8908 118.651C73.7237 117.514 73.1426 116.148 73.1426 114.549C73.1426 112.949 73.7237 111.584 74.8908 110.451C76.0579 109.319 77.4883 108.753 79.1869 108.753Z" fill="black"/>
<path d="M91.6033 114.474V116.381H85.8818V114.474H91.6033Z" fill="black"/>
<path d="M100.285 115.428L98.9341 111.772L97.5782 115.428H100.285ZM101.075 117.494H96.7836L95.83 120.116H93.2871L97.6626 108.986H100.201L104.576 120.116H102.028L101.075 117.494Z" fill="black"/>
<path d="M112.18 120.116H107.139V108.986H111.912C112.92 108.986 113.754 109.279 114.415 109.87C115.075 110.456 115.403 111.147 115.403 111.926C115.403 112.219 115.363 112.503 115.279 112.771C115.194 113.034 115.09 113.257 114.961 113.431C114.832 113.61 114.703 113.759 114.574 113.888C114.449 114.012 114.345 114.102 114.261 114.156L114.132 114.231C114.181 114.251 114.246 114.281 114.325 114.32C114.41 114.36 114.554 114.454 114.767 114.608C114.976 114.762 115.165 114.926 115.324 115.11C115.482 115.289 115.631 115.537 115.761 115.85C115.895 116.163 115.959 116.501 115.959 116.858C115.959 117.742 115.607 118.512 114.896 119.153C114.186 119.793 113.282 120.116 112.18 120.116ZM109.528 118.13H112.065C112.503 118.13 112.86 117.991 113.148 117.717C113.436 117.439 113.58 117.102 113.58 116.699C113.58 116.297 113.436 115.954 113.148 115.681C112.86 115.403 112.503 115.264 112.065 115.264H109.528V118.13ZM111.748 110.973H109.528V113.362H111.748C112.14 113.362 112.453 113.252 112.676 113.034C112.905 112.82 113.019 112.532 113.019 112.165C113.019 111.802 112.905 111.514 112.676 111.301C112.453 111.082 112.14 110.973 111.748 110.973Z" fill="black"/>
<path d="M117.728 108.986H126.469V111.132H123.295V120.116H120.911V111.132H117.728V108.986Z" fill="black"/>
<path d="M131.425 111.951C130.73 112.661 130.387 113.526 130.387 114.554C130.387 115.582 130.73 116.446 131.425 117.151C132.12 117.851 132.964 118.204 133.963 118.204C134.956 118.204 135.8 117.851 136.496 117.151C137.186 116.446 137.534 115.582 137.534 114.554C137.534 113.526 137.186 112.661 136.496 111.951C135.8 111.246 134.956 110.893 133.963 110.893C132.964 110.893 132.12 111.246 131.425 111.951ZM129.667 118.651C128.5 117.514 127.918 116.148 127.918 114.549C127.918 112.949 128.5 111.584 129.667 110.451C130.834 109.319 132.264 108.753 133.963 108.753C135.656 108.753 137.087 109.319 138.254 110.451C139.416 111.584 140.002 112.949 140.002 114.549C140.002 116.148 139.416 117.514 138.254 118.651C137.087 119.788 135.656 120.355 133.963 120.355C132.264 120.355 130.834 119.788 129.667 118.651Z" fill="black"/>
</svg>
