<svg width="132" height="100" viewBox="0 0 132 100" fill="none" xmlns="http://www.w3.org/2000/svg">
<path d="M99.7779 67.4903C99.4252 68.0714 98.8292 68.3594 97.9949 68.3594H82.2956C80.9447 68.3594 80.0308 68.1359 79.5491 67.684C79.0673 67.237 78.5359 66.3033 77.9598 64.8928C77.483 63.5568 76.9814 62.1711 76.6138 60.8053L76.5691 60.6414L76.5393 60.5421L76.4946 60.3931C73.2018 50.0229 58.1283 50.013 54.9497 60.4427L54.9447 60.4676L54.9348 60.4924L54.9298 60.5172C54.91 60.5917 54.8851 60.6662 54.8653 60.7407L54.8603 60.7656C54.4779 62.1463 53.9763 63.5419 53.4945 64.8928C52.978 66.3033 52.4664 67.237 51.9499 67.684C51.4384 68.1359 50.5046 68.3594 49.1587 68.3594H33.5538C32.7194 68.3594 32.1234 68.0714 31.7708 67.4903C31.4182 66.9142 31.4331 66.0798 31.8204 64.9871C31.885 64.7934 33.8269 59.4991 37.6462 49.0942C41.4655 38.6892 45.1904 28.5922 48.821 18.7981C52.4466 9.00409 54.3935 3.8488 54.6467 3.33725C55.2924 1.73305 56.2857 0.928467 57.6366 0.928467H73.8177C74.652 0.928467 75.2629 1.10726 75.6503 1.45989C76.0328 1.81252 76.4499 2.4383 76.9019 3.33725C77.1552 3.97794 80.9794 14.2885 88.3647 34.259C95.75 54.2296 99.5395 64.4756 99.7282 64.9871L99.7779 67.4903ZM60.6265 42.4588C59.5338 45.8262 62.1115 49.407 65.7222 49.407C69.3229 49.407 71.9204 45.8311 70.8278 42.4588C70.5298 41.7039 67.8926 31.4629 67.7883 31.3635C67.4704 30.3951 66.8645 30.261 65.7619 30.261C64.6593 30.261 63.969 30.4596 63.6909 31.5026C62.8267 33.8071 61.5453 40.1991 60.6265 42.4588Z" fill="#003399"/>
<path d="M65.762 24.7878C66.6957 24.7878 67.4556 25.5477 67.4556 26.4814C67.4556 27.4151 66.6957 28.175 65.762 28.175C64.8282 28.175 64.0684 27.4151 64.0684 26.4814C64.0684 25.5477 64.8282 24.7878 65.762 24.7878Z" fill="white"/>
<path d="M1.27588 95.0398H4.61837V95.6706H3.2923V99.46H2.60195V95.6706H1.27588V95.0398Z" fill="#2F2F2F"/>
<path d="M6.88818 95.0398H8.65628C9.07844 95.0398 9.43106 95.1789 9.71416 95.452C10.0022 95.7301 10.1413 96.0679 10.1413 96.4602C10.1413 96.8576 10.0022 97.1953 9.71416 97.4684C9.43106 97.7416 9.07844 97.8807 8.65628 97.8807H7.5835V99.46H6.88818V95.0398V95.0398ZM8.65628 95.6706H7.5835V97.2499H8.65628C8.87481 97.2499 9.05857 97.1754 9.2175 97.0215C9.3665 96.8725 9.44596 96.6837 9.44596 96.4602C9.44596 96.2367 9.3665 96.053 9.2175 95.899C9.05857 95.745 8.87481 95.6706 8.65628 95.6706Z" fill="#2F2F2F"/>
<path d="M11.7803 99.46L13.608 95.0398H14.3033L16.1359 99.46H15.4108L14.934 98.2929H12.9772L12.5054 99.46H11.7803V99.46ZM13.9556 95.8295L13.2305 97.6572H14.6807L13.9556 95.8295Z" fill="#2F2F2F"/>
<path d="M21.9718 95.0398V99.46H21.2814V97.533H19.1011V99.46H18.4058V95.0398H19.1011V96.9023H21.2814V95.0398H21.9718Z" fill="#2F2F2F"/>
<path d="M26.8289 94.9752C27.0524 94.9752 27.2709 95.005 27.4746 95.0646C27.6782 95.1242 27.852 95.1937 27.9861 95.2782C28.1202 95.3626 28.2394 95.447 28.3387 95.5315C28.4381 95.6109 28.5126 95.6805 28.5622 95.7401L28.6268 95.8295L28.1848 96.2715C28.1748 96.2566 28.155 96.2318 28.1351 96.202C28.1103 96.1722 28.0557 96.1175 27.9712 96.043C27.8868 95.9636 27.7974 95.894 27.6981 95.8394C27.6037 95.7798 27.4795 95.7301 27.3206 95.6805C27.1666 95.6358 27.0027 95.6109 26.8289 95.6109C26.372 95.6109 25.9846 95.7699 25.6667 96.0828C25.3489 96.4006 25.1899 96.793 25.1899 97.2499C25.1899 97.7068 25.3439 98.0942 25.6618 98.417C25.9796 98.7349 26.372 98.8938 26.8289 98.8938C27.0027 98.8938 27.1666 98.869 27.3256 98.8193C27.4845 98.7697 27.6136 98.715 27.7179 98.6455C27.8222 98.576 27.9116 98.5114 27.9911 98.4419C28.0706 98.3773 28.1301 98.3177 28.1699 98.273L28.2195 98.1936L28.6616 98.6405C28.6467 98.6654 28.6218 98.6952 28.5871 98.7349C28.5523 98.7746 28.4778 98.8491 28.3636 98.9485C28.2444 99.0478 28.1202 99.1372 27.9911 99.2167C27.862 99.2961 27.6881 99.3657 27.4795 99.4253C27.2709 99.4898 27.0524 99.5196 26.8289 99.5196C26.1684 99.5196 25.6121 99.3011 25.1651 98.864C24.7181 98.422 24.4946 97.8856 24.4946 97.2499C24.4946 96.6142 24.7181 96.0778 25.1651 95.6358C25.6121 95.1987 26.1684 94.9752 26.8289 94.9752V94.9752Z" fill="#2F2F2F"/>
<path d="M34.6217 95.0398V99.46H33.9313V95.6706H31.751V99.46H31.0557V95.0398H34.6217Z" fill="#2F2F2F"/>
<path d="M38.3166 96.0828C37.9988 96.4006 37.8398 96.793 37.8398 97.2499C37.8398 97.7068 37.9988 98.0942 38.3166 98.417C38.6345 98.7349 39.0219 98.8938 39.4788 98.8938C39.9407 98.8938 40.3281 98.7349 40.646 98.417C40.9638 98.0942 41.1227 97.7068 41.1227 97.2499C41.1227 96.793 40.9638 96.4006 40.646 96.0828C40.3281 95.7699 39.9407 95.6109 39.4788 95.6109C39.0219 95.6109 38.6345 95.7699 38.3166 96.0828V96.0828ZM37.815 98.864C37.368 98.422 37.1445 97.8856 37.1445 97.2499C37.1445 96.6142 37.368 96.0778 37.815 95.6358C38.267 95.1987 38.8183 94.9752 39.4788 94.9752C40.1394 94.9752 40.6956 95.1987 41.1426 95.6358C41.5896 96.0778 41.8131 96.6142 41.8131 97.2499C41.8131 97.8856 41.5896 98.422 41.1426 98.864C40.6956 99.3011 40.1394 99.5196 39.4788 99.5196C38.8183 99.5196 38.267 99.3011 37.815 98.864Z" fill="#2F2F2F"/>
<path d="M44.3408 95.0398H46.1039C46.5261 95.0398 46.8787 95.1789 47.1668 95.452C47.4499 95.7301 47.5889 96.0679 47.5889 96.4602C47.5889 96.8576 47.4499 97.1953 47.1668 97.4684C46.8787 97.7416 46.5261 97.8807 46.1039 97.8807H45.0312V99.46H44.3408V95.0398V95.0398ZM46.1039 95.6706H45.0312V97.2499H46.1039C46.3225 97.2499 46.5112 97.1754 46.6652 97.0215C46.8191 96.8725 46.8936 96.6837 46.8936 96.4602C46.8936 96.2367 46.8191 96.053 46.6652 95.899C46.5112 95.745 46.3225 95.6706 46.1039 95.6706Z" fill="#2F2F2F"/>
<path d="M49.6055 95.0398H52.9529V95.6706H51.6269V99.46H50.9315V95.6706H49.6055V95.0398Z" fill="#2F2F2F"/>
<path d="M58.7886 95.0398V99.46H58.0983V97.533H55.918V99.46H55.2227V95.0398H55.918V96.9023H58.0983V95.0398H58.7886Z" fill="#2F2F2F"/>
<path d="M61.0586 99.46L62.8913 95.0398H63.5816L65.4143 99.46H64.6891L64.2173 98.2929H62.2555L61.7837 99.46H61.0586ZM63.2389 95.8295L62.5088 97.6572H63.964L63.2389 95.8295Z" fill="#2F2F2F"/>
<path d="M70.7782 95.0398V99.46H70.0829V97.7565H69.0747L68.1261 99.46H67.3662L68.3794 97.6919C68.3546 97.682 68.3248 97.6721 68.285 97.6522C68.2403 97.6323 68.1708 97.5876 68.0715 97.5131C67.9721 97.4436 67.8827 97.3641 67.8033 97.2747C67.7238 97.1853 67.6543 97.0612 67.5897 96.9072C67.5251 96.7483 67.4953 96.5794 67.4953 96.4006C67.4953 96.0182 67.6294 95.6954 67.8976 95.4321C68.1708 95.1689 68.5085 95.0398 68.9158 95.0398H70.7782V95.0398ZM68.3993 95.8791C68.2602 96.0182 68.1907 96.192 68.1907 96.3957C68.1907 96.6043 68.2602 96.7781 68.3993 96.9172C68.5383 97.0513 68.7122 97.1208 68.9158 97.1208H70.0829V95.6706H68.9158C68.7122 95.6706 68.5383 95.7401 68.3993 95.8791Z" fill="#2F2F2F"/>
<path d="M82.5688 95.0398V97.1854L84.5554 95.0398H85.4444L83.7359 96.8725L85.5686 99.46H84.7143L83.2641 97.3741L82.5688 98.134V99.46H81.8784V95.0398H82.5688Z" fill="#2F2F2F"/>
<path d="M88.4391 96.0828C88.1213 96.4006 87.9623 96.793 87.9623 97.2499C87.9623 97.7068 88.1213 98.0942 88.4391 98.417C88.757 98.7349 89.1444 98.8938 89.6063 98.8938C90.0632 98.8938 90.4555 98.7349 90.7734 98.417C91.0913 98.0942 91.2502 97.7068 91.2502 97.2499C91.2502 96.793 91.0913 96.4006 90.7734 96.0828C90.4555 95.7699 90.0632 95.6109 89.6063 95.6109C89.1444 95.6109 88.757 95.7699 88.4391 96.0828V96.0828ZM87.9425 98.864C87.4955 98.422 87.272 97.8856 87.272 97.2499C87.272 96.6142 87.4955 96.0778 87.9425 95.6358C88.3895 95.1987 88.9457 94.9752 89.6063 94.9752C90.2668 94.9752 90.8181 95.1987 91.2701 95.6358C91.717 96.0778 91.9405 96.6142 91.9405 97.2499C91.9405 97.8856 91.717 98.422 91.2701 98.864C90.8181 99.3011 90.2668 99.5196 89.6063 99.5196C88.9457 99.5196 88.3895 99.3011 87.9425 98.864Z" fill="#2F2F2F"/>
<path d="M96.7679 97.1854L98.4714 95.0398H99.0723V99.46H98.382V96.2417L96.7679 98.2581L95.1587 96.2417V99.46H94.4634V95.0398H95.0643L96.7679 97.1854Z" fill="#2F2F2F"/>
<path d="M105.415 95.0398V99.46H104.719V95.6706H102.539V99.46H101.849V95.0398H105.415Z" fill="#2F2F2F"/>
<path d="M107.685 99.46L109.512 95.0398H110.208L112.04 99.46H111.315L110.838 98.2929H108.882L108.41 99.46H107.685ZM109.86 95.8295L109.135 97.6572H110.585L109.86 95.8295V95.8295Z" fill="#2F2F2F"/>
<path d="M117.876 95.0398V99.46H117.186V97.533H115.005V99.46H114.31V95.0398H115.005V96.9023H117.186V95.0398H117.876Z" fill="#2F2F2F"/>
<path d="M124.407 99.46H123.712V96.2715L121.248 99.46H120.652V95.0398H121.343V98.2283L123.806 95.0398H124.407V99.46Z" fill="#2F2F2F"/>
<path d="M130.277 95.0398V99.46H129.582V97.7565H128.569L127.625 99.46H126.865L127.878 97.6919C127.854 97.682 127.819 97.6721 127.779 97.6522C127.739 97.6323 127.67 97.5876 127.57 97.5131C127.466 97.4436 127.377 97.3641 127.302 97.2747C127.223 97.1853 127.148 97.0612 127.089 96.9072C127.024 96.7483 126.989 96.5794 126.989 96.4006C126.989 96.0182 127.128 95.6954 127.397 95.4321C127.67 95.1689 128.008 95.0398 128.415 95.0398H130.277V95.0398ZM127.898 95.8791C127.759 96.0182 127.69 96.192 127.69 96.3957C127.69 96.6043 127.759 96.7781 127.898 96.9172C128.037 97.0513 128.206 97.1208 128.415 97.1208H129.582V95.6706H128.415C128.206 95.6706 128.037 95.7401 127.898 95.8791Z" fill="#2F2F2F"/>
<path d="M7.54875 86.4277L6.19288 82.7723L4.83701 86.4277H7.54875ZM8.33843 88.4938H4.04732L3.09374 91.1161H0.545898L4.92144 79.9861H7.45935L11.8399 91.1161H9.29201L8.33843 88.4938V88.4938Z" fill="#222222"/>
<path d="M23.695 79.9861V91.1161H21.311V82.1316H18.053V83.408C18.053 84.9775 17.9685 86.2886 17.7947 87.3565C17.6209 88.4193 17.3676 89.2338 17.0249 89.805C16.6872 90.3712 16.3097 90.7735 15.8875 91.0069C15.4703 91.2403 14.9737 91.3545 14.3976 91.3545C14.1641 91.3545 13.9307 91.3297 13.6923 91.28C13.4539 91.2304 13.2801 91.1857 13.1659 91.1459L12.9722 91.0814V88.8117C13.2354 88.911 13.4986 88.9656 13.7619 88.9706C14.1741 88.9706 14.5118 88.8464 14.7651 88.5931C15.0234 88.3448 15.2369 87.7985 15.4107 86.9591C15.5846 86.1198 15.674 84.9377 15.674 83.4229V79.9861H23.695V79.9861Z" fill="#222222"/>
<path d="M32.2177 91.1161H27.5293V79.9861H29.9182V83.6415H32.2177C33.36 83.6415 34.3086 83.9991 35.0586 84.7142C35.8135 85.4344 36.191 86.3184 36.191 87.3813C36.191 88.4392 35.8135 89.3282 35.0586 90.0434C34.3086 90.7585 33.36 91.1161 32.2177 91.1161V91.1161ZM29.9182 88.9706H32.1383C32.6151 88.9706 33.0124 88.8166 33.3302 88.5087C33.6481 88.2008 33.807 87.8283 33.807 87.3813C33.807 86.9343 33.6481 86.5618 33.3302 86.2539C33.0124 85.941 32.6151 85.792 32.1383 85.792H29.9182V88.9706V88.9706Z" fill="#222222"/>
<path d="M47.5744 79.9861V91.1161H45.1905V87.2174H43.1244L40.9788 91.1161H38.4409L40.8199 86.8995C40.7702 86.8797 40.7007 86.8449 40.6113 86.8002C40.5169 86.7555 40.358 86.6363 40.1345 86.4426C39.9061 86.2489 39.7024 86.0453 39.5236 85.8218C39.3498 85.5983 39.1909 85.2904 39.0468 84.898C38.9078 84.5057 38.8333 84.0885 38.8333 83.6415C38.8333 82.6084 39.1958 81.7442 39.916 81.039C40.6312 80.3387 41.545 79.9861 42.6476 79.9861H47.5744V79.9861ZM41.2172 83.6415C41.2172 84.0438 41.3613 84.3815 41.6493 84.6596C41.9374 84.9377 42.295 85.0768 42.732 85.0768H45.1905V82.1316H42.732C42.295 82.1316 41.9374 82.2757 41.6493 82.5588C41.3613 82.8468 41.2172 83.2044 41.2172 83.6415V83.6415Z" fill="#222222"/>
<path d="M60.9441 79.9861V91.1161H58.5601V86.5817H53.7972V91.1161H51.4033V79.9861H53.7972V84.4361H58.5601V79.9861H60.9441Z" fill="#222222"/>
<path d="M70.1869 79.7527C70.7729 79.7527 71.3292 79.8272 71.8556 79.9811C72.3821 80.1351 72.8192 80.3189 73.1569 80.5374C73.4946 80.7559 73.7926 80.9695 74.0558 81.188C74.3191 81.4065 74.5028 81.5903 74.617 81.7393L74.7958 81.9727L73.286 83.4826C73.2512 83.4428 73.2115 83.3832 73.1569 83.3087C73.1022 83.2342 72.9781 83.1101 72.7894 82.9263C72.6006 82.7475 72.397 82.5886 72.1735 82.4495C71.95 82.3105 71.6619 82.1863 71.2944 82.0671C70.9319 81.9529 70.5643 81.8933 70.1869 81.8933C69.1439 81.8933 68.2748 82.2409 67.5794 82.9412C66.8792 83.6415 66.5315 84.5106 66.5315 85.5487C66.5315 86.5916 66.8792 87.4608 67.5794 88.1561C68.2748 88.8564 69.1439 89.204 70.1869 89.204C70.5892 89.204 70.9766 89.1494 71.3491 89.0352C71.7166 88.9259 72.0245 88.7968 72.2679 88.6428C72.5112 88.4889 72.7248 88.3349 72.9086 88.1809C73.0973 88.027 73.2314 87.8929 73.3158 87.7786L73.44 87.6147L74.8753 89.1296C74.8356 89.1891 74.771 89.2686 74.6866 89.3729C74.6021 89.4722 74.4085 89.651 74.1204 89.9043C73.8274 90.1626 73.5095 90.3911 73.1767 90.5798C72.844 90.7784 72.4069 90.9523 71.8656 91.1162C71.3242 91.2751 70.768 91.3546 70.1869 91.3546C68.4883 91.3546 67.0579 90.7884 65.8908 89.651C64.7237 88.5137 64.1426 87.1479 64.1426 85.5487C64.1426 83.9494 64.7237 82.5836 65.8908 81.4512C67.0579 80.3189 68.4883 79.7527 70.1869 79.7527V79.7527Z" fill="#222222"/>
<path d="M82.6033 85.4742V87.3814H76.8818V85.4742H82.6033Z" fill="#222222"/>
<path d="M91.285 86.4277L89.9341 82.7723L88.5782 86.4277H91.285ZM92.0747 88.4938H87.7836L86.83 91.1161H84.2871L88.6626 79.9861H91.2006L95.5761 91.1161H93.0282L92.0747 88.4938V88.4938Z" fill="#222222"/>
<path d="M103.18 91.1161H98.1387V79.9861H102.912C103.92 79.9861 104.754 80.2791 105.415 80.8701C106.075 81.4562 106.403 82.1465 106.403 82.9263C106.403 83.2193 106.363 83.5024 106.279 83.7706C106.194 84.0338 106.09 84.2573 105.961 84.4312C105.832 84.6099 105.703 84.7589 105.574 84.8881C105.449 85.0122 105.345 85.1016 105.261 85.1563L105.132 85.2308C105.181 85.2506 105.246 85.2804 105.325 85.3202C105.41 85.3599 105.554 85.4543 105.767 85.6082C105.976 85.7622 106.165 85.9261 106.324 86.1099C106.482 86.2886 106.631 86.537 106.761 86.8499C106.895 87.1628 106.959 87.5005 106.959 87.8581C106.959 88.7421 106.607 89.5119 105.896 90.1526C105.186 90.7933 104.282 91.1161 103.18 91.1161ZM100.528 89.1295H103.065C103.503 89.1295 103.86 88.9905 104.148 88.7173C104.436 88.4392 104.58 88.1014 104.58 87.6991C104.58 87.2969 104.436 86.9542 104.148 86.681C103.86 86.4029 103.503 86.2638 103.065 86.2638H100.528V89.1295V89.1295ZM102.748 81.9727H100.528V84.3616H102.748C103.14 84.3616 103.453 84.2524 103.676 84.0338C103.905 83.8203 104.019 83.5322 104.019 83.1647C104.019 82.8021 103.905 82.5141 103.676 82.3005C103.453 82.082 103.14 81.9727 102.748 81.9727Z" fill="#222222"/>
<path d="M108.728 79.9861H117.469V82.1316H114.295V91.1161H111.911V82.1316H108.728V79.9861Z" fill="#222222"/>
<path d="M122.425 82.9512C121.73 83.6614 121.387 84.5255 121.387 85.5536C121.387 86.5817 121.73 87.4459 122.425 88.1511C123.121 88.8514 123.965 89.204 124.963 89.204C125.957 89.204 126.801 88.8514 127.496 88.1511C128.187 87.4459 128.534 86.5817 128.534 85.5536C128.534 84.5255 128.187 83.6614 127.496 82.9512C126.801 82.2459 125.957 81.8933 124.963 81.8933C123.965 81.8933 123.121 82.2459 122.425 82.9512ZM120.667 89.651C119.5 88.5137 118.919 87.1479 118.919 85.5487C118.919 83.9494 119.5 82.5836 120.667 81.4512C121.834 80.3189 123.265 79.7527 124.963 79.7527C126.657 79.7527 128.087 80.3189 129.254 81.4512C130.417 82.5836 131.003 83.9494 131.003 85.5487C131.003 87.1479 130.417 88.5137 129.254 89.651C128.087 90.7884 126.657 91.3546 124.963 91.3546C123.265 91.3546 121.834 90.7884 120.667 89.651Z" fill="#222222"/>
</svg>
